<?xml version="1.0" encoding="UTF-8" standalone="no"?>
<!-- Created with Inkscape (http://www.inkscape.org/) -->
<svg xmlns:inkscape="http://www.inkscape.org/namespaces/inkscape" xmlns:rdf="http://www.w3.org/1999/02/22-rdf-syntax-ns#" xmlns="http://www.w3.org/2000/svg" xmlns:xlink="http://www.w3.org/1999/xlink" xmlns:ns1="http://sozi.baierouge.fr" xmlns:cc="http://creativecommons.org/ns#" xmlns:sodipodi="http://sodipodi.sourceforge.net/DTD/sodipodi-0.dtd" xmlns:dc="http://purl.org/dc/elements/1.1/" id="svg2" xml:space="preserve" viewBox="0 0 57.126 21.187" version="1.1" inkscape:version="0.91 r13725">
  <defs id="defs6">
    <clipPath id="clipPath18">
      <path id="path20" d="m0-0.050053h46v9h-46v-9z" inkscape:connector-curvature="0"/>
    </clipPath>
    <mask id="mask22">
      <g id="g24">
        <g id="g26" clip-path="url(#clipPath18)">
          <path id="path28" style="fill:#000000;fill-opacity:.14060" d="m0-0.050053h46v9h-46v-9z" inkscape:connector-curvature="0"/>
        </g>
      </g>
    </mask>
    <clipPath id="clipPath34">
      <path id="path36" d="m0-0.050053h46v9h-46v-9z" inkscape:connector-curvature="0"/>
    </clipPath>
    <clipPath id="clipPath38">
      <path id="path40" d="m0 0h46v9h-46v-9z" inkscape:connector-curvature="0"/>
    </clipPath>
  </defs>
  <g id="g10" transform="matrix(1.25 0 0 -1.25 0 21.187)">
    <g id="g12">
      <g id="g14">
        <g id="g30" mask="url(#mask22)">
          <g id="g42">
            <g id="g44" clip-path="url(#clipPath34)">
              <g id="g46" transform="translate(0 -.050053)">
                <g id="g50">
                  <g id="g52" clip-path="url(#clipPath38)">
                    <g id="g54">
                      <path id="path56" style="fill-rule:evenodd;fill:#000000" d="m41.32 7.828c0.825-0.027 1.52-0.176 2.078-0.441 0.321-0.133 0.657-0.293 1-0.481 0.243-0.051 0.414-0.144 0.524-0.277 0.078-0.082 0.277-0.309 0.598-0.68 0.453-0.48 0.054-0.773-1.2-0.883-0.8-0.265-1.386-0.425-1.761-0.48-0.371-0.051-1.161-0.359-2.36-0.918-0.453-0.242-0.933-0.387-1.437-0.441-0.696-0.051-1.375-0.118-2.043-0.2-0.879-0.105-1.504-0.238-1.879-0.398-0.586-0.293-1.254-0.613-2-0.961-0.852-0.398-1.399-0.613-1.641-0.641-0.504-0.078-0.906-0.16-1.199-0.238-0.719-0.187-1.398-0.281-2.039-0.281-0.906 0.078-1.789 0.144-2.641 0.199-0.988 0.055-1.519 0.039-1.601-0.039-0.266-0.215-0.492-0.348-0.68-0.398-0.586-0.188-1.266-0.254-2.039-0.204-0.559 0.028-1.68 0.161-3.359 0.403-0.403 0.051-1.453 0.25-3.161 0.597-0.855 0.161-1.695 0.254-2.519 0.282-0.906 0.027-1.668 0.132-2.281 0.32-0.668 0.215-1.2 0.371-1.602 0.48-0.266 0.079-0.812 0.293-1.637 0.641-0.722 0.293-1.441 0.504-2.16 0.637-0.375 0.054-0.722 0.187-1.043 0.402-0.316 0.188-0.863 0.332-1.636 0.442-0.907 0.132-1.442 0.41-1.602 0.839v0.598c0.426 0.16 0.906 0.242 1.441 0.242 0.211 0 0.918 0.199 2.118 0.598 1.226 0.426 2.175 0.656 2.839 0.68 1.227 0.054 3.11 0.082 5.641 0.082 0.934 0 4.266 0.132 10 0.398 5.496 0.266 8.988 0.387 10.481 0.359l8.8-0.238z" inkscape:connector-curvature="0"/>
                    </g>
                  </g>
                </g>
              </g>
            </g>
          </g>
        </g>
      </g>
      <path id="path58" style="fill-rule:evenodd;fill:#9f9fa1" d="m37.238 10.778 5.723-5.32c-2.773-0.641-5.375-1.121-7.801-1.442-0.426-0.05-2.359-0.519-5.801-1.398-2.691-0.668-5.265-1-7.718-1-2.586 0-6.575 0.641-11.961 1.918-2.692 0.641-5.121 1.281-7.282 1.922l7.282 3.879c1.386 0.961 3.121 1.988 5.199 3.082 4.16 2.16 7.973 3.547 11.441 4.16 3.465 0.586 6.332-0.203 8.602-2.36 1.117-1.093 1.89-2.242 2.316-3.441z" inkscape:connector-curvature="0"/>
      <path id="path60" style="fill-rule:evenodd;fill:#858687" d="m33.121 14.618c0.293-0.027 0.625-0.082 1-0.16 0.238 0 0.758-0.266 1.559-0.801 0.32-0.215 0.773-1.027 1.359-2.438 0.106-0.296 0.254-0.496 0.441-0.601 0.293-0.188 0.575-0.441 0.84-0.762 0.426-0.531 0.668-0.824 0.719-0.879 0.082-0.05 0.469-0.293 1.16-0.718 0.961-0.563 1.879-1.497 2.762-2.801-0.828-0.293-1.535-0.442-2.121-0.442-0.375 0-0.668-0.027-0.879-0.078-0.348-0.109-0.723-0.215-1.121-0.32-2.215-0.613-3.949-0.922-5.199-0.922-0.614 0-1.082-0.078-1.403-0.238-0.426-0.266-0.851-0.508-1.277-0.719-0.695-0.348-1.695-0.641-3-0.883-1.441-0.265-2.922-0.398-4.441-0.398-1.36 0-2.442 0.039-3.243 0.117l-0.797 0.121c0.266 0.375 0.454 0.828 0.559 1.359 0.082 0.321 0.332 0.696 0.762 1.122 0.211 0.214 0.426 0.386 0.637 0.519-0.106 0.481-0.239 0.879-0.399 1.199-0.105 0.188-0.371 0.387-0.801 0.602l-0.597 0.277 0.718 0.563c0.453 0.347 1.371 0.734 2.762 1.16 0.078 0.238 0.184 0.531 0.317 0.879 0.269 0.668 0.519 1.199 0.761 1.601 0.266 0.371 0.531 0.598 0.801 0.68 0.184 0.051 0.613 0.16 1.277 0.32 2.453 0.774 4.188 1.492 5.2 2.16 0.562 0.348 1.109 0.508 1.644 0.481z" inkscape:connector-curvature="0"/>
      <path id="path62" style="fill-rule:evenodd;fill:#858687" d="m13.281 6.618 1.68-0.402c-0.215-0.372-0.586-0.664-1.121-0.879-0.32-0.133-0.641-0.133-0.961 0-0.399 0.242-0.758 0.425-1.078 0.558-0.613 0.27-1.336 0.453-2.16 0.563-0.453 0.051-0.895 0.16-1.321 0.32l-0.48 0.238 2.601 0.082c0.532-0.027 0.864-0.054 1-0.082 0.161-0.054 0.774-0.187 1.84-0.398z" inkscape:connector-curvature="0"/>
      <path id="path64" style="fill-rule:evenodd;fill:#858687" d="m20.641 11.219c0.398-0.082 0.504-0.386 0.32-0.921-0.188-0.536-0.496-0.84-0.922-0.922-0.398-0.078-0.68-0.078-0.84 0-0.078 0.054-0.226 0.187-0.437 0.402-0.188 0.188-0.055 0.492 0.398 0.918 0.481 0.43 0.973 0.602 1.481 0.523z" inkscape:connector-curvature="0"/>
      <path id="path66" style="fill-rule:evenodd;fill:#858687" d="m16.84 11.137c0.398 0 0.586-0.121 0.558-0.359-0.023-0.215-0.253-0.469-0.679-0.762-0.453-0.293-0.653-0.172-0.598 0.36 0.051 0.508 0.293 0.761 0.719 0.761z" inkscape:connector-curvature="0"/>
      <path id="path68" style="fill-rule:evenodd;fill:#b8b8ba" d="m32.68 14.098c-0.692-0.054-1.36-0.308-2-0.761-0.051-0.028-0.254-0.211-0.602-0.559-0.183-0.16-0.476-0.266-0.879-0.32l-3.277-0.602c-0.828-0.183-1.309-0.359-1.442-0.519l-0.48-0.52 0.238 0.52c0.27 0.347 0.617 0.562 1.043 0.64 0.852 0.133 1.481 0.282 1.879 0.442 0.215 0.078 0.348 0.183 0.402 0.32 0.051 0.105 0.184 0.184 0.399 0.238 0.691 0.106 1.094 0.188 1.199 0.242 0.293 0.106 0.52 0.211 0.68 0.317 0.082 0.055 0.215 0.16 0.402 0.32 0.184 0.137 0.199 0.336 0.039 0.602-0.133 0.265-0.32 0.441-0.558 0.519-0.883 0.133-1.629 0.266-2.243 0.399-0.824 0.16-1.492 0.269-2 0.32-0.425 0.027-0.734 0.027-0.918 0-0.374-0.133-0.816-0.254-1.324-0.359-0.504-0.106-1.25-0.36-2.238-0.758-0.906-0.348-1.574-0.563-2-0.641-1.254-0.242-2.121-0.547-2.602-0.922-0.183-0.132-0.812-0.437-1.878-0.918l-1.52-0.679 3.121 1.679c1.387 0.801 2.934 1.504 4.641 2.121 0.16 0.051 0.476 0.145 0.957 0.278 0.293 0.082 0.562 0.187 0.801 0.32 0.214 0.106 0.507 0.254 0.878 0.442 0.348 0.16 0.75 0.226 1.204 0.199 0.398-0.028 0.933 0.039 1.597 0.199 0.723 0.187 1.242 0.281 1.563 0.281 1.332 0.055 2.316-0.066 2.957-0.359 0.187-0.082 0.519-0.188 1-0.32 0.402-0.106 0.801-0.266 1.203-0.481 0.504-0.266 1.039-0.625 1.598-1.082 0.507-0.398 0.8-0.652 0.878-0.758l0.122-0.199c-1.282 0.293-2.227 0.414-2.84 0.359z" inkscape:connector-curvature="0"/>
      <path id="path70" style="fill-rule:evenodd;fill:#9f9fa1" d="m35.559 9.458c0.054 0 0.043-0.028-0.039-0.082-0.106-0.106-0.055-0.199 0.16-0.278 0.508-0.187 0.215-0.468-0.879-0.839-0.348-0.161-0.602-0.266-0.762-0.321-0.211-0.082-0.613-0.133-1.199-0.16s-0.828 0.082-0.719 0.32c0.238 0.239 0.371 0.399 0.399 0.481 0.132 0.211 0.425 0.48 0.882 0.797 0.133 0.109 0.41 0.136 0.84 0.082 0.531-0.055 0.973-0.055 1.317 0z" inkscape:connector-curvature="0"/>
      <path id="path72" style="fill-rule:evenodd;fill:#9f9fa1" d="m28.84 8.739c0.32 0.133 0.625 0.145 0.922 0.039 0.265-0.133 0.304-0.309 0.117-0.519-0.16-0.188-0.293-0.297-0.399-0.321-0.16 0.024-0.347 0.039-0.558 0.039-0.242 0-0.402-0.015-0.484-0.039-0.079-0.082-0.172-0.133-0.278-0.16-0.32-0.348-0.773-0.601-1.359-0.762-0.403-0.105-0.547-0.078-0.442 0.082l0.399 0.399c0.64 0.508 1.336 0.922 2.082 1.242z" inkscape:connector-curvature="0"/>
      <path id="path74" style="fill-rule:evenodd;fill:#9f9fa1" d="m28.559 4.259c0.429 0.05 0.652-0.071 0.679-0.364 0.028-0.293-0.199-0.547-0.679-0.758-0.399-0.187-0.664-0.214-0.797-0.082-0.27 0.243-0.414 0.36-0.442 0.36-0.265 0.082-0.215 0.242 0.16 0.48 0.372 0.215 0.735 0.336 1.079 0.364z" inkscape:connector-curvature="0"/>
    </g>
  </g>
<metadata><rdf:RDF><cc:Work><dc:format>image/svg+xml</dc:format><dc:type rdf:resource="http://purl.org/dc/dcmitype/StillImage"/><cc:license rdf:resource="http://creativecommons.org/licenses/publicdomain/"/><dc:publisher><cc:Agent rdf:about="http://openclipart.org/"><dc:title>Openclipart</dc:title></cc:Agent></dc:publisher></cc:Work><cc:License rdf:about="http://creativecommons.org/licenses/publicdomain/"><cc:permits rdf:resource="http://creativecommons.org/ns#Reproduction"/><cc:permits rdf:resource="http://creativecommons.org/ns#Distribution"/><cc:permits rdf:resource="http://creativecommons.org/ns#DerivativeWorks"/></cc:License></rdf:RDF></metadata></svg>
